<?xml version="1.0" encoding="UTF-8"?>
<svg width="1440px" height="660px" viewBox="0 0 1440 660" version="1.1" xmlns="http://www.w3.org/2000/svg" xmlns:xlink="http://www.w3.org/1999/xlink">
    <!-- Generator: Sketch 41.2 (35397) - http://www.bohemiancoding.com/sketch -->
    <title>Group 3</title>
    <desc>Created with Sketch.</desc>
    <defs></defs>
    <g id="Page-1" stroke="none" stroke-width="1" fill="none" fill-rule="evenodd" opacity="0.0798799819">
        <g id="Desktop-HD" transform="translate(0.000000, -1104.000000)" fill="#FFFFFF">
            <g id="Group-3" transform="translate(-27.000000, 1101.000000)">
                <g id="bleach" transform="translate(1265.000000, 108.000000)">
                    <g id="Layer_1">
                        <path d="M21.5,0.02475 L0,36.97525 L43,36.97525 L21.5,0.02475 Z M21.5,3.58075 L39.8965254,35.1979167 L3.10347461,35.1979167 L21.5,3.58075 Z" id="Shape"></path>
                    </g>
                </g>
                <g id="bleach" transform="translate(1248.000000, 100.000000)">
                    <g id="Layer_1">
                        <path d="M21.5,0.02475 L0,36.97525 L43,36.97525 L21.5,0.02475 Z M21.5,3.58075 L39.8965254,35.1979167 L3.10347461,35.1979167 L21.5,3.58075 Z" id="Shape"></path>
                    </g>
                </g>
                <g id="bleach" transform="translate(201.000000, 598.000000)">
                    <g id="Layer_1">
                        <path d="M21.5,0.02475 L0,36.97525 L43,36.97525 L21.5,0.02475 Z M21.5,3.58075 L39.8965254,35.1979167 L3.10347461,35.1979167 L21.5,3.58075 Z" id="Shape"></path>
                    </g>
                </g>
                <g id="bleach" transform="translate(184.000000, 590.000000)">
                    <g id="Layer_1">
                        <path d="M21.5,0.02475 L0,36.97525 L43,36.97525 L21.5,0.02475 Z M21.5,3.58075 L39.8965254,35.1979167 L3.10347461,35.1979167 L21.5,3.58075 Z" id="Shape"></path>
                    </g>
                </g>
                <g id="bleach" transform="translate(389.000000, 423.000000)">
                    <g id="Layer_1">
                        <path d="M21.5,0.02475 L0,36.97525 L43,36.97525 L21.5,0.02475 Z M21.5,3.58075 L39.8965254,35.1979167 L3.10347461,35.1979167 L21.5,3.58075 Z" id="Shape"></path>
                    </g>
                </g>
                <g id="bleach" transform="translate(1061.000000, 612.000000)">
                    <g id="Layer_1">
                        <path d="M21.5,0.02475 L0,36.97525 L43,36.97525 L21.5,0.02475 Z M21.5,3.58075 L39.8965254,35.1979167 L3.10347461,35.1979167 L21.5,3.58075 Z" id="Shape"></path>
                    </g>
                </g>
                <g id="waves" transform="translate(184.000000, 75.000000)">
                    <g id="Layer_1">
                        <g id="Waves">
                            <path d="M13.6754272,10.0267253 C18.0873464,10.0267253 22.4960353,8.51285102 26.9626107,5.48675003 C34.4784207,0.392953193 43.9650111,0.394603028 51.7181634,5.4932677 C52.1010871,5.74340753 52.6142773,5.63706454 52.8645338,5.25286352 C53.1152105,4.8687427 53.0081377,4.35303594 52.6255425,4.10124545 C44.3038757,-1.36941263 34.1157022,-1.36693738 26.0357718,4.10776311 C17.7254555,9.73921328 9.630616,9.74003786 1.29032028,4.10693696 C0.910624966,3.85027946 0.396276528,3.95266328 0.140717236,4.33356462 C-0.114428077,4.71438569 -0.0133140141,5.23091704 0.365967236,5.48757454 C4.8478628,8.51367561 9.26301123,10.0267253 13.6754272,10.0267253 Z" id="Shape"></path>
                            <path d="M52.6255425,15.5874721 C44.303048,10.1168149 34.1148745,10.1192901 26.0357718,15.5939898 C17.7246262,21.227089 9.6297868,21.2262645 1.29032028,15.5931652 C0.910624966,15.3365077 0.396276528,15.4380654 0.141131216,15.8197929 C-0.114428159,16.2006957 -0.0133140969,16.7172271 0.365967153,16.9738028 C4.84744849,19.9999022 9.26226526,21.5137765 13.6745991,21.5137765 C18.0865167,21.5129519 22.4952894,19.9999022 26.9626103,16.9730601 C34.4775925,11.8784371 43.9642619,11.881655 51.7181629,16.979496 C52.1010866,17.2296359 52.6146907,17.1232913 52.8649504,16.7390903 C53.1152104,16.354971 53.0081377,15.8392626 52.6255425,15.5874721 Z" id="Shape"></path>
                            <path d="M52.6255425,27.0736988 C44.303048,21.6046938 34.1152915,21.6071674 26.0357718,27.0802165 C17.7262831,32.7133189 9.63218928,32.7149679 1.29032028,27.0793919 C0.910624966,26.8228162 0.396276528,26.9251166 0.141131216,27.3060195 C-0.114428159,27.6869224 -0.0133140969,28.2034538 0.365967153,28.4601113 C4.8478623,31.4869566 9.26342463,33.0008308 13.6754267,33.0000063 C18.0873459,33.0000063 22.4960348,31.4861289 26.9621964,28.4592868 C34.4784203,23.3662342 43.964262,23.3678833 51.7181629,28.4657227 C52.1010866,28.7158625 52.6146907,28.6095211 52.8649504,28.2254019 C53.1152104,27.8411977 53.0081377,27.3254909 52.6255425,27.0736988 Z" id="Shape"></path>
                        </g>
                    </g>
                </g>
                <g id="waves" transform="translate(1234.000000, 442.000000)">
                    <g id="Layer_1">
                        <g id="Waves">
                            <path d="M13.6754272,10.0267253 C18.0873464,10.0267253 22.4960353,8.51285102 26.9626107,5.48675003 C34.4784207,0.392953193 43.9650111,0.394603028 51.7181634,5.4932677 C52.1010871,5.74340753 52.6142773,5.63706454 52.8645338,5.25286352 C53.1152105,4.8687427 53.0081377,4.35303594 52.6255425,4.10124545 C44.3038757,-1.36941263 34.1157022,-1.36693738 26.0357718,4.10776311 C17.7254555,9.73921328 9.630616,9.74003786 1.29032028,4.10693696 C0.910624966,3.85027946 0.396276528,3.95266328 0.140717236,4.33356462 C-0.114428077,4.71438569 -0.0133140141,5.23091704 0.365967236,5.48757454 C4.8478628,8.51367561 9.26301123,10.0267253 13.6754272,10.0267253 Z" id="Shape"></path>
                            <path d="M52.6255425,15.5874721 C44.303048,10.1168149 34.1148745,10.1192901 26.0357718,15.5939898 C17.7246262,21.227089 9.6297868,21.2262645 1.29032028,15.5931652 C0.910624966,15.3365077 0.396276528,15.4380654 0.141131216,15.8197929 C-0.114428159,16.2006957 -0.0133140969,16.7172271 0.365967153,16.9738028 C4.84744849,19.9999022 9.26226526,21.5137765 13.6745991,21.5137765 C18.0865167,21.5129519 22.4952894,19.9999022 26.9626103,16.9730601 C34.4775925,11.8784371 43.9642619,11.881655 51.7181629,16.979496 C52.1010866,17.2296359 52.6146907,17.1232913 52.8649504,16.7390903 C53.1152104,16.354971 53.0081377,15.8392626 52.6255425,15.5874721 Z" id="Shape"></path>
                            <path d="M52.6255425,27.0736988 C44.303048,21.6046938 34.1152915,21.6071674 26.0357718,27.0802165 C17.7262831,32.7133189 9.63218928,32.7149679 1.29032028,27.0793919 C0.910624966,26.8228162 0.396276528,26.9251166 0.141131216,27.3060195 C-0.114428159,27.6869224 -0.0133140969,28.2034538 0.365967153,28.4601113 C4.8478623,31.4869566 9.26342463,33.0008308 13.6754267,33.0000063 C18.0873459,33.0000063 22.4960348,31.4861289 26.9621964,28.4592868 C34.4784203,23.3662342 43.964262,23.3678833 51.7181629,28.4657227 C52.1010866,28.7158625 52.6146907,28.6095211 52.8649504,28.2254019 C53.1152104,27.8411977 53.0081377,27.3254909 52.6255425,27.0736988 Z" id="Shape"></path>
                        </g>
                    </g>
                </g>
                <g id="waves" transform="translate(237.000000, 460.000000)">
                    <g id="Layer_1">
                        <g id="Waves">
                            <path d="M13.6754272,10.0267253 C18.0873464,10.0267253 22.4960353,8.51285102 26.9626107,5.48675003 C34.4784207,0.392953193 43.9650111,0.394603028 51.7181634,5.4932677 C52.1010871,5.74340753 52.6142773,5.63706454 52.8645338,5.25286352 C53.1152105,4.8687427 53.0081377,4.35303594 52.6255425,4.10124545 C44.3038757,-1.36941263 34.1157022,-1.36693738 26.0357718,4.10776311 C17.7254555,9.73921328 9.630616,9.74003786 1.29032028,4.10693696 C0.910624966,3.85027946 0.396276528,3.95266328 0.140717236,4.33356462 C-0.114428077,4.71438569 -0.0133140141,5.23091704 0.365967236,5.48757454 C4.8478628,8.51367561 9.26301123,10.0267253 13.6754272,10.0267253 Z" id="Shape"></path>
                            <path d="M52.6255425,15.5874721 C44.303048,10.1168149 34.1148745,10.1192901 26.0357718,15.5939898 C17.7246262,21.227089 9.6297868,21.2262645 1.29032028,15.5931652 C0.910624966,15.3365077 0.396276528,15.4380654 0.141131216,15.8197929 C-0.114428159,16.2006957 -0.0133140969,16.7172271 0.365967153,16.9738028 C4.84744849,19.9999022 9.26226526,21.5137765 13.6745991,21.5137765 C18.0865167,21.5129519 22.4952894,19.9999022 26.9626103,16.9730601 C34.4775925,11.8784371 43.9642619,11.881655 51.7181629,16.979496 C52.1010866,17.2296359 52.6146907,17.1232913 52.8649504,16.7390903 C53.1152104,16.354971 53.0081377,15.8392626 52.6255425,15.5874721 Z" id="Shape"></path>
                            <path d="M52.6255425,27.0736988 C44.303048,21.6046938 34.1152915,21.6071674 26.0357718,27.0802165 C17.7262831,32.7133189 9.63218928,32.7149679 1.29032028,27.0793919 C0.910624966,26.8228162 0.396276528,26.9251166 0.141131216,27.3060195 C-0.114428159,27.6869224 -0.0133140969,28.2034538 0.365967153,28.4601113 C4.8478623,31.4869566 9.26342463,33.0008308 13.6754267,33.0000063 C18.0873459,33.0000063 22.4960348,31.4861289 26.9621964,28.4592868 C34.4784203,23.3662342 43.964262,23.3678833 51.7181629,28.4657227 C52.1010866,28.7158625 52.6146907,28.6095211 52.8649504,28.2254019 C53.1152104,27.8411977 53.0081377,27.3254909 52.6255425,27.0736988 Z" id="Shape"></path>
                        </g>
                    </g>
                </g>
                <g id="waves" transform="translate(1441.000000, 0.000000)">
                    <g id="Layer_1">
                        <g id="Waves">
                            <path d="M13.6754272,10.0267253 C18.0873464,10.0267253 22.4960353,8.51285102 26.9626107,5.48675003 C34.4784207,0.392953193 43.9650111,0.394603028 51.7181634,5.4932677 C52.1010871,5.74340753 52.6142773,5.63706454 52.8645338,5.25286352 C53.1152105,4.8687427 53.0081377,4.35303594 52.6255425,4.10124545 C44.3038757,-1.36941263 34.1157022,-1.36693738 26.0357718,4.10776311 C17.7254555,9.73921328 9.630616,9.74003786 1.29032028,4.10693696 C0.910624966,3.85027946 0.396276528,3.95266328 0.140717236,4.33356462 C-0.114428077,4.71438569 -0.0133140141,5.23091704 0.365967236,5.48757454 C4.8478628,8.51367561 9.26301123,10.0267253 13.6754272,10.0267253 Z" id="Shape"></path>
                            <path d="M52.6255425,15.5874721 C44.303048,10.1168149 34.1148745,10.1192901 26.0357718,15.5939898 C17.7246262,21.227089 9.6297868,21.2262645 1.29032028,15.5931652 C0.910624966,15.3365077 0.396276528,15.4380654 0.141131216,15.8197929 C-0.114428159,16.2006957 -0.0133140969,16.7172271 0.365967153,16.9738028 C4.84744849,19.9999022 9.26226526,21.5137765 13.6745991,21.5137765 C18.0865167,21.5129519 22.4952894,19.9999022 26.9626103,16.9730601 C34.4775925,11.8784371 43.9642619,11.881655 51.7181629,16.979496 C52.1010866,17.2296359 52.6146907,17.1232913 52.8649504,16.7390903 C53.1152104,16.354971 53.0081377,15.8392626 52.6255425,15.5874721 Z" id="Shape"></path>
                            <path d="M52.6255425,27.0736988 C44.303048,21.6046938 34.1152915,21.6071674 26.0357718,27.0802165 C17.7262831,32.7133189 9.63218928,32.7149679 1.29032028,27.0793919 C0.910624966,26.8228162 0.396276528,26.9251166 0.141131216,27.3060195 C-0.114428159,27.6869224 -0.0133140969,28.2034538 0.365967153,28.4601113 C4.8478623,31.4869566 9.26342463,33.0008308 13.6754267,33.0000063 C18.0873459,33.0000063 22.4960348,31.4861289 26.9621964,28.4592868 C34.4784203,23.3662342 43.964262,23.3678833 51.7181629,28.4657227 C52.1010866,28.7158625 52.6146907,28.6095211 52.8649504,28.2254019 C53.1152104,27.8411977 53.0081377,27.3254909 52.6255425,27.0736988 Z" id="Shape"></path>
                        </g>
                    </g>
                </g>
                <g id="waves" transform="translate(0.000000, 531.000000)">
                    <g id="Layer_1">
                        <g id="Waves">
                            <path d="M13.6754272,10.0267253 C18.0873464,10.0267253 22.4960353,8.51285102 26.9626107,5.48675003 C34.4784207,0.392953193 43.9650111,0.394603028 51.7181634,5.4932677 C52.1010871,5.74340753 52.6142773,5.63706454 52.8645338,5.25286352 C53.1152105,4.8687427 53.0081377,4.35303594 52.6255425,4.10124545 C44.3038757,-1.36941263 34.1157022,-1.36693738 26.0357718,4.10776311 C17.7254555,9.73921328 9.630616,9.74003786 1.29032028,4.10693696 C0.910624966,3.85027946 0.396276528,3.95266328 0.140717236,4.33356462 C-0.114428077,4.71438569 -0.0133140141,5.23091704 0.365967236,5.48757454 C4.8478628,8.51367561 9.26301123,10.0267253 13.6754272,10.0267253 Z" id="Shape"></path>
                            <path d="M52.6255425,15.5874721 C44.303048,10.1168149 34.1148745,10.1192901 26.0357718,15.5939898 C17.7246262,21.227089 9.6297868,21.2262645 1.29032028,15.5931652 C0.910624966,15.3365077 0.396276528,15.4380654 0.141131216,15.8197929 C-0.114428159,16.2006957 -0.0133140969,16.7172271 0.365967153,16.9738028 C4.84744849,19.9999022 9.26226526,21.5137765 13.6745991,21.5137765 C18.0865167,21.5129519 22.4952894,19.9999022 26.9626103,16.9730601 C34.4775925,11.8784371 43.9642619,11.881655 51.7181629,16.979496 C52.1010866,17.2296359 52.6146907,17.1232913 52.8649504,16.7390903 C53.1152104,16.354971 53.0081377,15.8392626 52.6255425,15.5874721 Z" id="Shape"></path>
                            <path d="M52.6255425,27.0736988 C44.303048,21.6046938 34.1152915,21.6071674 26.0357718,27.0802165 C17.7262831,32.7133189 9.63218928,32.7149679 1.29032028,27.0793919 C0.910624966,26.8228162 0.396276528,26.9251166 0.141131216,27.3060195 C-0.114428159,27.6869224 -0.0133140969,28.2034538 0.365967153,28.4601113 C4.8478623,31.4869566 9.26342463,33.0008308 13.6754267,33.0000063 C18.0873459,33.0000063 22.4960348,31.4861289 26.9621964,28.4592868 C34.4784203,23.3662342 43.964262,23.3678833 51.7181629,28.4657227 C52.1010866,28.7158625 52.6146907,28.6095211 52.8649504,28.2254019 C53.1152104,27.8411977 53.0081377,27.3254909 52.6255425,27.0736988 Z" id="Shape"></path>
                        </g>
                    </g>
                </g>
                <g id="rhombus" transform="translate(1160.000000, 127.000000)">
                    <path d="M8,0 L0,8 L8,16 L16,8 L8,0 Z M2,8 L8,2 L14,8 L8,14 L2,8 Z" id="Shape"></path>
                </g>
                <g id="rhombus" transform="translate(537.000000, 46.000000)">
                    <path d="M15,0 L0,15 L15,30 L30,15 L15,0 Z M3.75,15 L15,3.75 L26.25,15 L15,26.25 L3.75,15 Z" id="Shape"></path>
                </g>
                <g id="rhombus" transform="translate(1061.000000, 445.000000)">
                    <path d="M15,0 L0,15 L15,30 L30,15 L15,0 Z M3.75,15 L15,3.75 L26.25,15 L15,26.25 L3.75,15 Z" id="Shape"></path>
                </g>
                <g id="rhombus" transform="translate(69.000000, 168.000000)">
                    <path d="M15,0 L0,15 L15,30 L30,15 L15,0 Z M3.75,15 L15,3.75 L26.25,15 L15,26.25 L3.75,15 Z" id="Shape"></path>
                </g>
                <g id="waves" transform="translate(614.000000, 630.000000)">
                    <g id="Layer_1">
                        <g id="Waves">
                            <path d="M13.6754272,10.0267253 C18.0873464,10.0267253 22.4960353,8.51285102 26.9626107,5.48675003 C34.4784207,0.392953193 43.9650111,0.394603028 51.7181634,5.4932677 C52.1010871,5.74340753 52.6142773,5.63706454 52.8645338,5.25286352 C53.1152105,4.8687427 53.0081377,4.35303594 52.6255425,4.10124545 C44.3038757,-1.36941263 34.1157022,-1.36693738 26.0357718,4.10776311 C17.7254555,9.73921328 9.630616,9.74003786 1.29032028,4.10693696 C0.910624966,3.85027946 0.396276528,3.95266328 0.140717236,4.33356462 C-0.114428077,4.71438569 -0.0133140141,5.23091704 0.365967236,5.48757454 C4.8478628,8.51367561 9.26301123,10.0267253 13.6754272,10.0267253 Z" id="Shape"></path>
                            <path d="M52.6255425,15.5874721 C44.303048,10.1168149 34.1148745,10.1192901 26.0357718,15.5939898 C17.7246262,21.227089 9.6297868,21.2262645 1.29032028,15.5931652 C0.910624966,15.3365077 0.396276528,15.4380654 0.141131216,15.8197929 C-0.114428159,16.2006957 -0.0133140969,16.7172271 0.365967153,16.9738028 C4.84744849,19.9999022 9.26226526,21.5137765 13.6745991,21.5137765 C18.0865167,21.5129519 22.4952894,19.9999022 26.9626103,16.9730601 C34.4775925,11.8784371 43.9642619,11.881655 51.7181629,16.979496 C52.1010866,17.2296359 52.6146907,17.1232913 52.8649504,16.7390903 C53.1152104,16.354971 53.0081377,15.8392626 52.6255425,15.5874721 Z" id="Shape"></path>
                            <path d="M52.6255425,27.0736988 C44.303048,21.6046938 34.1152915,21.6071674 26.0357718,27.0802165 C17.7262831,32.7133189 9.63218928,32.7149679 1.29032028,27.0793919 C0.910624966,26.8228162 0.396276528,26.9251166 0.141131216,27.3060195 C-0.114428159,27.6869224 -0.0133140969,28.2034538 0.365967153,28.4601113 C4.8478623,31.4869566 9.26342463,33.0008308 13.6754267,33.0000063 C18.0873459,33.0000063 22.4960348,31.4861289 26.9621964,28.4592868 C34.4784203,23.3662342 43.964262,23.3678833 51.7181629,28.4657227 C52.1010866,28.7158625 52.6146907,28.6095211 52.8649504,28.2254019 C53.1152104,27.8411977 53.0081377,27.3254909 52.6255425,27.0736988 Z" id="Shape"></path>
                        </g>
                    </g>
                </g>
                <g id="rhombus" transform="translate(1365.000000, 327.000000)">
                    <path d="M13.5,0 L0,13.5 L13.5,27 L27,13.5 L13.5,0 Z M3.375,13.5 L13.5,3.375 L23.625,13.5 L13.5,23.625 L3.375,13.5 Z" id="Shape"></path>
                </g>
                <g id="rhombus" transform="translate(53.000000, 367.000000)">
                    <path d="M8,0 L0,8 L8,16 L16,8 L8,0 Z M2,8 L8,2 L14,8 L8,14 L2,8 Z" id="Shape"></path>
                </g>
            </g>
        </g>
    </g>
</svg>