<?xml version="1.0" encoding="UTF-8"?>
<svg width="602px" height="68px" viewBox="0 0 602 68" version="1.1" xmlns="http://www.w3.org/2000/svg" xmlns:xlink="http://www.w3.org/1999/xlink">
    <!-- Generator: Sketch 41.2 (35397) - http://www.bohemiancoding.com/sketch -->
    <title>Group 2</title>
    <desc>Created with Sketch.</desc>
    <defs></defs>
    <g id="Page-1" stroke="none" stroke-width="1" fill="none" fill-rule="evenodd" opacity="0.4">
        <g id="Group-2" fill="#E1E1E1">
            <g id="zigzag">
                <g id="Page-1">
                    <g id="zigzag-lines-in-side-view-position" transform="translate(201.500000, 32.000000) rotate(-90.000000) translate(-201.500000, -32.000000) translate(169.500000, -169.500000)">
                        <g id="Group">
                            <path d="M3.409,402.851 C4.138,402.851 4.85,402.576 5.392,402.029 L56.118,351.314 C57.211,350.23 57.211,348.436 56.118,347.352 L9.398,300.634 L58.163,251.865 C59.257,250.781 59.257,248.998 58.163,247.904 L11.631,201.381 L60.638,152.379 C61.708,151.284 61.708,149.508 60.638,148.417 L13.906,101.697 L62.675,52.931 C63.762,51.839 63.762,50.06 62.675,48.969 L14.517,0.821 C13.423,-0.274 11.634,-0.274 10.556,0.821 C9.463,1.911 9.463,3.688 10.556,4.782 L56.711,50.947 L7.983,99.683 C6.889,100.777 6.889,102.553 7.983,103.644 C8.062,103.724 8.142,103.751 8.246,103.814 C8.355,103.948 8.385,104.099 8.511,104.216 L54.684,150.388 L5.938,199.124 C5.248,199.819 5.062,200.777 5.228,201.669 C5.215,202.407 5.477,203.151 6.046,203.71 L52.219,249.893 L3.477,298.616 C2.394,299.712 2.394,301.495 3.477,302.579 C3.552,302.666 3.641,302.693 3.726,302.743 C3.828,302.874 3.86,303.027 4,303.148 L50.173,349.309 L1.442,398.037 C0.345,399.132 0.345,400.921 1.442,401.999 C1.975,402.585 2.688,402.851 3.409,402.851 Z" id="Shape"></path>
                        </g>
                    </g>
                </g>
            </g>
            <g id="zigzag" transform="translate(398.000000, 9.000000)">
                <g id="Page-1">
                    <g id="zigzag-lines-in-side-view-position" transform="translate(102.000000, 29.500000) rotate(-90.000000) translate(-102.000000, -29.500000) translate(72.500000, -72.500000)">
                        <g id="Group" transform="translate(0.000000, -0.000000)">
                            <path d="M6.631,201.381 L55.638,152.379 C56.708,151.284 56.708,149.508 55.638,148.417 L8.906,101.697 L57.675,52.931 C58.762,51.839 58.762,50.06 57.675,48.969 L9.517,0.821 C8.423,-0.274 6.634,-0.274 5.556,0.821 C4.463,1.911 4.463,3.688 5.556,4.782 L51.711,50.947 L2.983,99.683 C1.889,100.777 1.889,102.553 2.983,103.644 C3.062,103.724 3.142,103.751 3.246,103.814 C3.355,103.948 3.385,104.099 3.511,104.216 L49.684,150.388 L0.938,199.124 C0.248,199.819 0.062,200.777 0.228,201.669 C0.215,202.407 0.477,203.151 1.046,203.71 L6.631,201.381 Z" id="Shape"></path>
                        </g>
                    </g>
                </g>
            </g>
        </g>
    </g>
</svg>